<?xml version="1.0" encoding="UTF-8" standalone="no"?>
<svg
   xmlns:dc="http://purl.org/dc/elements/1.1/"
   xmlns:cc="http://creativecommons.org/ns#"
   xmlns:rdf="http://www.w3.org/1999/02/22-rdf-syntax-ns#"
   xmlns:svg="http://www.w3.org/2000/svg"
   xmlns="http://www.w3.org/2000/svg"
   xmlns:sodipodi="http://sodipodi.sourceforge.net/DTD/sodipodi-0.dtd"
   xmlns:inkscape="http://www.inkscape.org/namespaces/inkscape"
   width="1200"
   height="700"
   viewBox="0 0 338.6684 197.55375"
   version="1.1"
   id="svg134"
   sodipodi:docname="usa-map.svg"
   inkscape:version="0.92.4 (5da689c313, 2019-01-14)"
   style="font-family:'Times New Roman'">
  <metadata
     id="metadata140">
    <rdf:RDF>
      <cc:Work
         rdf:about="">
        <dc:format>image/svg+xml</dc:format>
        <dc:type
           rdf:resource="http://purl.org/dc/dcmitype/StillImage" />
        <dc:title></dc:title>
      </cc:Work>
    </rdf:RDF>
  </metadata>
  <defs
     id="defs138" />
  <sodipodi:namedview
     pagecolor="#ffffff"
     bordercolor="#666666"
     borderopacity="1"
     objecttolerance="10"
     gridtolerance="10"
     guidetolerance="10"
     inkscape:pageopacity="0"
     inkscape:pageshadow="2"
     inkscape:window-width="1319"
     inkscape:window-height="755"
     id="namedview136"
     showgrid="false"
     inkscape:zoom="0.43694152"
     inkscape:cx="354.91596"
     inkscape:cy="571.40684"
     inkscape:window-x="132"
     inkscape:window-y="56"
     inkscape:window-maximized="0"
     inkscape:current-layer="svg134" />
  <g
     id="g4803"
     transform="matrix(2.7952861,0,0,2.7952861,-14.75947,-8.5427069)">
    <path
       style="opacity:1;fill:#ebebeb;fill-opacity:1;stroke:#152332;stroke-width:0.1693342;stroke-miterlimit:10;stroke-dasharray:none;stroke-opacity:1"
       inkscape:connector-curvature="0"
       id="path2"
       stroke-miterlimit="10"
       d="m 91.365021,58.370675 -4.07,-0.16 h -1.82 l 0.16,1.33 -0.81,0.06 v -0.66 l -0.43,-0.23 -0.17,0.96 -0.67,-0.04 -0.24,-1.83 0.07,-9.99 5.41,-0.5 1.99,6.82 -0.33,1.34 0.5,0.83 -0.17,1.07 0.5,0.76 0.08,0.24" />
    <path
       style="opacity:1;fill:#ebebeb;fill-opacity:1;stroke:#152332;stroke-width:0.1693342;stroke-miterlimit:10;stroke-dasharray:none;stroke-opacity:1"
       inkscape:connector-curvature="0"
       id="path24"
       stroke-miterlimit="10"
       d="m 25.685021,44.160675 -0.12,0.49 0.42,0.5 0.17,0.74 0.16,0.42 -0.25,0.67 -0.91,0.58 0.08,0.25 -0.41,0.58 -0.09,0.42 v 1.16 1.08 l 2.99,2.13 1.5,1 1.82,1.24 5.48,0.61 2.3,-14.83 -10.87,-1.81 -0.47,2.43 -0.33,0.33 -0.59,-0.49 -0.5,0.41 -0.17,1.99 -0.21,0.1" />
    <path
       style="opacity:1;fill:#ebebeb;fill-opacity:1;stroke:#152332;stroke-width:0.1693342;stroke-miterlimit:10;stroke-dasharray:none;stroke-opacity:1"
       inkscape:connector-curvature="0"
       id="path26"
       stroke-miterlimit="10"
       d="m 79.565021,45.560675 -1,0.17 -0.41,-0.34 0.25,-0.41 0.25,-0.92 -9.56,0.42 0.34,7.74 0.58,0.02 0.25,1.56 6.57,-0.25 0.07,-0.25 -0.07,-0.92 0.07,-0.91 0.59,-1 0.74,-0.92 -0.33,-0.83 0.66,-0.5 0.16,-0.51 0.6,-0.56 0.33,-1.26 -0.09,-0.33" />
    <path
       style="opacity:1;fill:#ebebeb;fill-opacity:1;stroke:#152332;stroke-width:0.1693342;stroke-miterlimit:10;stroke-dasharray:none;stroke-opacity:1"
       inkscape:connector-curvature="0"
       id="path28"
       stroke-miterlimit="10"
       d="m 24.735021,49.970675 v -1.16 l 0.09,-0.42 0.41,-0.58 -0.08,-0.25 0.91,-0.58 0.25,-0.67 -0.16,-0.42 -0.17,-0.74 -0.42,-0.5 0.32,-0.63 -5.3,-7.78 -3.16,-5.16 2.02,-7.54 -8.01,-2.05 -0.36,0.24 0.17,0.5 v 0.33 l -1.09,1.83 -0.4100001,0.67 v 1 l 0.4100001,0.5 0.09,1.57 -0.16,1.33 0.24,1.09 0.5,0.83 0.09,1.33 h 0.83 l 0.08,-0.33 0.42,0.17 v 0.33 l -0.34,0.17 -0.08,0.41 v 0.33 l -0.34,-0.08 -0.41,0.58 0.5,0.59 0.5,1.16 -0.25,0.5 -0.34,0.33 0.59,1.5 0.33,0.67 0.41,1.07 0.42,0.92 v 0.84 l -0.16,0.66 -0.09,0.17 0.75,0.24 0.41,0.5 0.5,-0.08 0.42,0.08 0.41,0.33 0.17,0.43 0.16,0.49 0.67,0.08 0.58,0.34 0.25,0.33 0.42,0.59 0.33,0.49 0.33,0.5 0.5,0.08 0.08,0.17 0.17,0.5 0.08,0.83 0.08,0.66 0.5,0.43 0.5,0.07 0.5,0.09 1.49,0.34 1.09,0.16 0.74,-0.09 0.62,-0.29" />
    <path
       style="opacity:1;fill:#ebebeb;fill-opacity:1;stroke:#152332;stroke-width:0.1693342;stroke-miterlimit:10;stroke-dasharray:none;stroke-opacity:1"
       inkscape:connector-curvature="0"
       id="path30"
       stroke-miterlimit="10"
       d="m 40.045021,30.420675 9.82,1.08 4.04,0.34 -0.6,10.67 -2.23,-0.06 -12.22,-1.22 1.19,-10.81" />
    <path
       style="opacity:1;fill:#ebebeb;fill-opacity:1;stroke:#152332;stroke-width:0.1693342;stroke-miterlimit:10;stroke-dasharray:none;stroke-opacity:1"
       inkscape:connector-curvature="0"
       id="path32"
       stroke-miterlimit="10"
       d="m 113.71502,24.760675 v -1.41 l -3.44,1.18 -0.02,2.2 -0.11,1.59 0.41,-1.19 0.34,-0.57 1.24,-1 0.75,-0.17 0.74,-0.16 0.09,-0.47" />
    <path
       style="opacity:1;fill:#ebebeb;fill-opacity:1;stroke:#152332;stroke-width:0.1693342;stroke-miterlimit:10;stroke-dasharray:none;stroke-opacity:1"
       inkscape:connector-curvature="0"
       id="path34"
       stroke-miterlimit="10"
       d="m 110.20502,33.480675 -0.69,0.07 -0.88,-0.61 -0.2,-0.83 -0.45,-1.37 -0.94,0.23 0.77,3.2 h 1.75 l 0.64,-0.69" />
    <path
       style="opacity:1;fill:#ebebeb;fill-opacity:1;stroke:#152332;stroke-width:0.1693342;stroke-miterlimit:10;stroke-dasharray:none;stroke-opacity:1"
       inkscape:connector-curvature="0"
       id="path36"
       stroke-miterlimit="10"
       d="m 90.195021,60.500675 -0.99,-0.42 -0.91,-0.58 -0.92,-0.08 -1,0.58 h -0.69 l -0.05,-0.46 -0.16,-1.33 h 1.82 l 4.05,0.16 0.07,0.56 6.25,-0.03 0.19,0.22 h 0.35 l -0.2,-1.91 1.57,0.2 0.35,1.17 0.829999,1.5 0.5,1.17 1.33,2.16 0.5,1.25 0.99,1.5 0.58,0.83 0.09,2.08 -0.26,1.08 -0.16,0.5 -0.08,0.41 -0.83,0.59 h -0.59 l -0.41,-0.33 -0.25,-0.5 -0.5,-0.5 -0.74,-0.67 -0.83,-0.49 v -0.59 l -0.419999,-0.5 v -0.75 l -0.58,0.17 -0.67,-0.59 -0.42,-0.5 0.09,-0.5 0.17,-0.49 -0.09,-0.75 -0.33,0.17 -0.25,0.41 -0.08,-1.33 0.08,-1 -0.16,-0.83 -0.92,-0.58 -0.91,-0.59 -0.75,-0.41 -0.91,-0.42 -1,-0.41 -0.33,0.5 -0.5,0.5 -0.83,-0.09 -1.09,-0.08" />
    <path
       style="opacity:1;fill:#ebebeb;fill-opacity:1;stroke:#152332;stroke-width:0.1693342;stroke-miterlimit:10;stroke-dasharray:none;stroke-opacity:1"
       inkscape:connector-curvature="0"
       id="path38"
       stroke-miterlimit="10"
       d="m 99.335021,53.050675 -0.41,-0.58 -0.66,-1 -1.16,-1.5 -0.92,-0.08 -1.17,-1.5 -0.41,-0.41 -0.58,-0.09 -0.41,-0.41 0.33,-0.76 -2.66,0.34 -2.49,0.25 1.99,6.82 -0.33,1.34 0.5,0.83 -0.16,1.06 0.45,0.59 0.21,1.04 0.09,-0.06 6.13,-0.03 0.23,0.24 h 0.28 l -0.18,-1.93 1.59,0.21 -0.26,-0.67 0.17,-1.66 0.33,-0.17 0.169999,-0.33 -0.499999,-0.08 1.589999,-1.16 -0.95,-0.46 -0.809999,0.16" />
    <path
       style="opacity:1;fill:#ebebeb;fill-opacity:1;stroke:#152332;stroke-width:0.1693342;stroke-miterlimit:10;stroke-dasharray:none;stroke-opacity:1"
       inkscape:connector-curvature="0"
       id="path54"
       stroke-miterlimit="10"
       d="m 37.425021,20.420675 -0.64,-0.32 h -0.58 l -0.58,0.17 -0.75,0.16 -1.17,-0.16 0.17,-0.67 -0.5,-0.5 -0.17,-0.66 -0.49,-0.58 0.08,-0.5 -0.16,-0.92 -0.26,0.17 -0.41,0.09 -0.33,0.24 -0.09,-0.5 0.17,-1.24 0.59,-1.26 -0.26,-0.24 -0.24,-0.09 -0.42,-0.41 -0.17,-0.66 -0.41,-0.67 -0.5,-0.5 -0.16,-0.83 0.07,-1.4999998 0.11,-1.95 -1.44,-0.3 -0.75,3.5899998 -0.49,2.13 -0.44,1.66 -2.47,10.59 5.77,1.45 5.8,1.05 1.12,-6.84" />
    <path
       style="opacity:1;fill:#ebebeb;fill-opacity:1;stroke:#152332;stroke-width:0.1693342;stroke-miterlimit:10;stroke-dasharray:none;stroke-opacity:1"
       inkscape:connector-curvature="0"
       id="path56"
       stroke-miterlimit="10"
       d="m 83.555021,39.820675 -0.58,0.42 -0.09,0.58 -0.49,0.25 -0.08,0.5 -0.62,0.56 -0.84,0.7 -0.46,-0.34 -0.66,-0.59 0.16,-0.17 0.17,-0.5 -0.74,-0.57 -0.67,-0.5 -0.66,-0.83 v -0.67 l 0.24,-0.5 -0.08,-0.59 -0.99,-0.07 -0.92,-1 -0.58,-0.76 -0.25,-0.83 -0.32,-1.14 0.9,-0.52 -0.16,-1.08 0.33,-0.33 -0.5,-0.59 0.41,-0.33 0.76,-0.34 0.49,-0.57 0.34,-0.67 -0.34,-0.5 -0.58,-0.83 -0.34,-0.59 5.82,-0.16 0.17,1.13 0.66,1.16 0.17,0.37 0.16,2.49 0.09,2.26 0.08,1.33 -0.41,0.83 0.17,0.5 0.16,0.58 -0.42,0.83 0.66,0.09 0.34,0.83 -0.5,0.16" />
    <path
       style="opacity:1;fill:#ebebeb;fill-opacity:1;stroke:#152332;stroke-width:0.1693342;stroke-miterlimit:10;stroke-dasharray:none;stroke-opacity:1"
       inkscape:connector-curvature="0"
       id="path58"
       stroke-miterlimit="10"
       d="m 83.055021,29.550675 0.5,0.17 0.75,-0.26 0.25,-0.74 3.74,0.12 1.16,6.49 v 0.75 l -0.5,0.33 -0.49,0.75 -0.34,0.5 -0.58,0.08 -0.17,1.25 -0.58,0.34 -0.42,-0.43 -0.74,0.34 -0.33,0.33 -1.25,0.09 -0.34,-0.83 -0.66,-0.09 0.42,-0.83 -0.16,-0.58 -0.17,-0.5 0.41,-0.83 -0.08,-1.33 -0.09,-2.26 -0.16,-2.49 -0.17,-0.37" />
    <path
       style="opacity:1;fill:#ebebeb;fill-opacity:1;stroke:#152332;stroke-width:0.1693342;stroke-miterlimit:10;stroke-dasharray:none;stroke-opacity:1"
       inkscape:connector-curvature="0"
       id="path60"
       stroke-miterlimit="10"
       d="m 66.275021,32.750675 -0.58,-3.74 -0.58,-1.09 -0.25,-2.41 0.36,-0.25 10.04,0.17 0.98,1.66 0.5,0.92 0.58,0.83 0.34,0.5 -0.34,0.67 -0.49,0.57 -0.76,0.34 -0.41,0.33 0.5,0.59 -0.33,0.33 0.16,1.08 -0.93,0.53 -0.15,-0.28 -0.41,-0.59 -1.09,0.34 -6.89,0.25 -0.25,-0.75" />
    <path
       style="opacity:1;fill:#ebebeb;fill-opacity:1;stroke:#152332;stroke-width:0.1693342;stroke-miterlimit:10;stroke-dasharray:none;stroke-opacity:1"
       inkscape:connector-curvature="0"
       id="path62"
       stroke-miterlimit="10"
       d="m 69.055021,37.300675 -0.2,-0.14 -0.66,-1.25 0.38,-0.33 -0.05,-0.41 -14.79,-0.59 -0.42,7.91 15.74,0.57 0.04,-5.35 -0.04,-0.41" />
    <path
       style="opacity:1;fill:#ebebeb;fill-opacity:1;stroke:#152332;stroke-width:0.1693342;stroke-miterlimit:10;stroke-dasharray:none;stroke-opacity:1"
       inkscape:connector-curvature="0"
       id="path64"
       stroke-miterlimit="10"
       d="m 92.785021,41.990675 0.66,-0.59 0.74,-0.24 0.09,-0.59 0.91,-0.83 -0.41,-1.08 -0.52,-1.44 -0.4,-0.39 -0.83,-0.17 -1.07,0.25 -1.5,-0.34 -0.59,-0.49 h -0.41 l -0.5,0.33 -0.49,0.75 -0.34,0.5 -0.58,0.08 -0.17,1.25 -0.58,0.34 -0.42,-0.43 -0.74,0.34 -0.33,0.33 h -0.26 l -1.49,0.25 -0.58,0.42 -0.09,0.58 -0.49,0.25 -0.08,0.5 -1,0.89 -0.44,0.36 -0.43,0.83 1.2,0.41 1.08,-0.57 0.92,-0.09 3.23,-0.41 5.74,-0.67 0.17,-0.33" />
    <path
       style="opacity:1;fill:#ebebeb;fill-opacity:1;stroke:#152332;stroke-width:0.1693342;stroke-miterlimit:10;stroke-dasharray:none;stroke-opacity:1"
       inkscape:connector-curvature="0"
       id="path66"
       stroke-miterlimit="10"
       d="m 80.655021,60.200675 -0.26,-1.24 h -0.41 -3.74 l -0.17,-1.16 0.59,-0.84 0.17,-0.58 0.83,-0.58 -0.42,-0.83 -0.41,-1.42 -6.57,0.25 0.09,0.67 v 1.99 l 0.83,1 0.41,1 0.16,1 -0.24,0.91 -0.5,0.83 v 0.59 l 0.08,0.58 0.92,-0.37 0.91,0.5 1.32,0.17 1.17,-0.17 1.16,-0.09 v 0.5 l 0.83,0.33 1,0.67 0.25,-0.58 0.74,0.08 0.34,-0.25 0.42,-0.08 1.16,0.33 0.5,0.59 0.33,-0.26 0.17,-0.5 -0.33,-0.08 -0.5,-0.49 -0.59,-0.34 0.33,-0.5 0.42,-0.25 v -0.58 l -0.49,0.17 -0.43,0.74 -0.16,-0.33 0.16,-0.58 -0.33,-0.16 -0.41,0.24 -0.92,-0.24 1.09,-0.34 1,0.17 -0.5,-0.47" />
    <path
       style="opacity:1;fill:#ebebeb;fill-opacity:1;stroke:#152332;stroke-width:0.1693342;stroke-miterlimit:10;stroke-dasharray:none;stroke-opacity:1"
       inkscape:connector-curvature="0"
       id="path68"
       stroke-miterlimit="10"
       d="m 114.71502,19.770675 -1.92,-4.99 0.17,-0.29 0.33,-1.08 0.17,-1.33 -0.17,-1.75 0.66,-0.5799998 -0.07,-1.83 0.66,-0.33 0.74,0.66 0.83,-0.58 0.59,-0.17 0.67,0.92 0.41,1.5799998 0.08,1.16 0.08,0.83 0.33,0.42 0.67,-0.33 0.25,0.58 0.67,0.83 0.5,0.17 0.24,0.33 -0.41,0.33 h -0.75 l -1.08,1 -0.16,-0.41 -0.17,0.5 -0.66,-0.09 0.07,0.92 -0.57,0.58 -1,1.08 -0.66,1 -0.26,1.41 -0.24,-0.54" />
    <path
       style="opacity:1;fill:#ebebeb;fill-opacity:1;stroke:#152332;stroke-width:0.1693342;stroke-miterlimit:10;stroke-dasharray:none;stroke-opacity:1"
       inkscape:connector-curvature="0"
       id="path70"
       stroke-miterlimit="10"
       d="m 104.99502,33.120675 0.5,0.93 -0.16,1.49 1.98,1.33 0.16,-0.16 -0.16,-0.42 -1,-0.84 0.92,0.34 -0.59,-0.58 v -0.75 l -0.16,-1 -0.08,-0.91 h 0.24 l 0.17,1 0.25,0.66 -0.08,0.83 0.49,-0.16 0.34,0.33 0.58,0.67 -0.08,0.66 -0.08,1.33 0.33,-0.33 0.41,-0.92 0.09,-1 0.5,-1 v -0.45 h -1.75 l -0.82,-3.21 -6.999999,1.42 0.01,1.29 2.65,-1.29 0.22,0.41 0.93,0.66 0.61,0.22 0.58,-0.55" />
    <path
       style="opacity:1;fill:#ebebeb;fill-opacity:1;stroke:#152332;stroke-width:0.1693342;stroke-miterlimit:10;stroke-dasharray:none;stroke-opacity:1"
       inkscape:connector-curvature="0"
       id="path72"
       stroke-miterlimit="10"
       d="m 114.95502,21.270675 -3.16,0.25 -1.57,0.15 0.08,2.85 3.41,-1.17 0.71,0.22 0.37,0.32 0.83,0.34 0.33,-0.34 h 0.66 l 0.76,-0.33 v -0.42 l -0.59,-0.67 0.33,0.43 -0.16,0.5 -0.67,-0.09 -0.24,-0.34 -0.59,-0.66 -0.33,-1 -0.17,-0.04" />
    <path
       style="opacity:1;fill:#ebebeb;fill-opacity:1;stroke:#152332;stroke-width:0.1693342;stroke-miterlimit:10;stroke-dasharray:none;stroke-opacity:1"
       inkscape:connector-curvature="0"
       id="path74"
       stroke-miterlimit="10"
       d="m 77.165021,16.940675 2.23,0.5 1.83,0.83 0.59,1.5 -0.09,1.54 0.42,-1 0.33,-1.07 0.34,-0.92 0.41,-0.08 0.49,0.57 0.26,-0.57 0.91,-0.26 0.59,-0.5 0.83,-0.07 1.17,0.51 0.7,-0.57 1.03,-0.03 0.33,-0.25 -0.5,-0.09 h -0.66 l -0.5,-0.41 -0.33,-0.25 -0.83,-0.08 -0.08,-0.5 -0.5,-0.25 h -0.26 l -0.9,0.16 -0.42,0.17 -0.58,0.25 -0.59,0.34 h -0.57 -0.83 l -0.59,-0.67 h -0.33 l -0.75,0.08 -0.25,-0.33 0.17,-0.58 0.49,-0.33 v -0.5 l -0.57,0.24 -1,0.83 -0.83,0.84 -0.83,0.49 -0.83,0.17 0.5,0.29" />
    <path
       style="opacity:1;fill:#ebebeb;fill-opacity:1;stroke:#152332;stroke-width:0.1693342;stroke-miterlimit:10;stroke-dasharray:none;stroke-opacity:1"
       inkscape:connector-curvature="0"
       id="path76"
       stroke-miterlimit="10"
       d="m 88.285021,28.830675 -3.73,-0.11 0.49,-1.16 v -1.09 l -0.33,-1.58 -0.5,-1.25 0.34,-1.33 0.58,-1.41 0.58,-0.83 0.25,0.24 0.58,-0.83 0.42,-0.91 0.5,-0.42 0.83,0.09 0.66,0.5 0.84,0.33 0.4,0.17 0.09,1.16 0.08,1 -0.33,0.74 -0.33,0.76 v 0.66 l 0.42,0.08 0.16,-0.41 0.08,-0.5 0.59,-0.33 0.74,-0.26 0.26,0.17 0.16,0.75 0.33,0.58 0.25,0.5 0.25,0.59 -0.75,0.74 -0.17,0.75 -0.41,0.34 -0.16,0.91 -0.5,0.75 0.08,0.5 -0.54,-0.15 -2.21,0.26" />
    <path
       style="opacity:1;fill:#ebebeb;fill-opacity:1;stroke:#152332;stroke-width:0.1693342;stroke-miterlimit:10;stroke-dasharray:none;stroke-opacity:1"
       inkscape:connector-curvature="0"
       id="path78"
       stroke-miterlimit="10"
       d="m 65.195021,24.930675 -0.08,-4 -0.58,-0.66 0.08,-0.75 0.42,-0.66 -0.17,-0.83 -0.25,-1.59 -0.17,-1.41 0.09,-0.92 -0.66,-1.24 v -1.92 l 1.53,-0.03 2.16,-0.09 0.25,-0.08 v -0.75 h 0.25 l 0.25,0.83 0.33,0.66 0.83,0.42 0.66,0.17 0.59,0.17 -0.09,-0.61 h 1.88 l -0.5,0.52 0.74,0.25 0.75,0.25 0.25,0.33 2.41,0.09 1.08,-0.09 0.25,0.09 -1.58,1 -1.5,1.07 -0.66,0.5 -0.58,0.88 0.08,1.33 0.09,0.24 -0.76,0.67 -0.41,0.33 v 0.59 l 0.08,0.67 0.17,0.41 -0.17,1.33 0.33,0.5 1.42,0.42 0.5,0.33 0.33,0.67 0.41,0.24 v 0.92 l 0.09,0.25 -10.14,-0.17 v -0.33" />
    <path
       style="opacity:1;fill:#ebebeb;fill-opacity:1;stroke:#152332;stroke-width:0.1693342;stroke-miterlimit:10;stroke-dasharray:none;stroke-opacity:1"
       inkscape:connector-curvature="0"
       id="path80"
       stroke-miterlimit="10"
       d="m 78.565021,48.220675 -0.66,0.5 0.33,0.83 -0.74,0.92 -0.59,1 -0.07,0.91 0.03,1.19 0.38,1.4 0.42,0.83 -0.83,0.58 -0.17,0.58 -0.59,0.84 0.17,1.16 h 3.74 0.41 l 0.26,1.24 0.78,-0.36 1.13,-0.34 0.99,0.13 -0.24,-1.83 v -9.91 h -1.33 l -3.33,0.09 -0.09,0.24" />
    <path
       style="opacity:1;fill:#ebebeb;fill-opacity:1;stroke:#152332;stroke-width:0.1693342;stroke-miterlimit:10;stroke-dasharray:none;stroke-opacity:1"
       inkscape:connector-curvature="0"
       id="path82"
       stroke-miterlimit="10"
       d="m 80.155021,44.150675 -0.59,0.67 v 0.74 l -1,0.17 -0.41,-0.34 0.25,-0.41 0.25,-0.92 -9.56,0.42 -0.04,-7.23 -0.2,-0.09 -0.66,-1.23 0.38,-0.37 -0.07,-0.38 -1.98,-1.68 6.89,-0.25 1.09,-0.34 0.56,0.87 0.35,1.13 0.25,0.83 0.58,0.76 0.92,1 0.99,0.07 0.08,0.59 -0.24,0.5 v 0.67 l 0.66,0.83 0.67,0.5 0.74,0.57 -0.17,0.5 -0.16,0.17 0.72,0.62 0.41,0.32 -0.71,1.31" />
    <path
       style="opacity:1;fill:#ebebeb;fill-opacity:1;stroke:#152332;stroke-width:0.1693342;stroke-miterlimit:10;stroke-dasharray:none;stroke-opacity:1"
       inkscape:connector-curvature="0"
       id="path84"
       stroke-miterlimit="10"
       d="m 30.215021,9.0406752 -0.07,1.4999998 0.16,0.83 0.5,0.5 0.41,0.67 0.17,0.66 0.42,0.41 0.24,0.09 0.26,0.24 -0.59,1.26 -0.17,1.24 0.09,0.5 0.33,-0.24 0.41,-0.09 0.26,-0.17 0.16,0.92 -0.08,0.5 0.49,0.58 0.17,0.66 0.5,0.5 -0.17,0.67 1.17,0.16 0.75,-0.16 0.58,-0.17 h 0.58 l 0.67,0.33 0.16,-1.16 13.14,1.54 0.85,-10.5 -4.89,-0.4799998 -3.9,-0.41 -3.49,-0.5 -3.49,-0.76 -2.91,-0.49 -2.57,-0.58 -0.14,1.95" />
    <path
       style="opacity:1;fill:#ebebeb;fill-opacity:1;stroke:#152332;stroke-width:0.1693342;stroke-miterlimit:10;stroke-dasharray:none;stroke-opacity:1"
       inkscape:connector-curvature="0"
       id="path86"
       stroke-miterlimit="10"
       d="m 65.695021,29.010675 0.58,3.77 0.28,0.73 1.92,1.66 -0.93,-0.05 -13.81,-0.54 0.17,-2.74 -3.99,-0.32 0.42,-5.33 10.71,0.49 1,0.74 h 0.5 l 0.24,-0.33 0.66,0.17 1.09,0.75 0.66,0.41 0.5,0.59" />
    <path
       style="opacity:1;fill:#ebebeb;fill-opacity:1;stroke:#152332;stroke-width:0.1693342;stroke-miterlimit:10;stroke-dasharray:none;stroke-opacity:1"
       inkscape:connector-curvature="0"
       id="path88"
       stroke-miterlimit="10"
       d="m 25.205021,43.020675 -4.62,-6.78 -3.16,-5.16 2.01,-7.53 11.04,2.63 -2.99,15.64 -0.33,0.33 -0.59,-0.49 -0.5,0.41 -0.17,1.99 -0.69,-1.04" />
    <path
       style="opacity:1;fill:#ebebeb;fill-opacity:1;stroke:#152332;stroke-width:0.1693342;stroke-miterlimit:10;stroke-dasharray:none;stroke-opacity:1"
       inkscape:connector-curvature="0"
       id="path90"
       stroke-miterlimit="10"
       d="m 114.95502,21.270675 -0.01,-0.91 -2.15,-5.58 -1,0.3 0.34,0.66 -0.17,1.37 -0.41,0.92 v 1.33 l 0.24,1.33 v 0.82 l 3.16,-0.24" />
    <path
       style="opacity:1;fill:#ebebeb;fill-opacity:1;stroke:#152332;stroke-width:0.1693342;stroke-miterlimit:10;stroke-dasharray:none;stroke-opacity:1"
       inkscape:connector-curvature="0"
       id="path92"
       stroke-miterlimit="10"
       d="m 108.39502,31.920675 -0.42,-0.91 0.42,-0.5 0.34,-0.92 -0.92,-0.34 v -0.66 l 0.33,-1.91 -0.24,-0.33 1.99,0.83 0.33,0.29 -0.09,1 0.59,0.33 v 1.25 l -0.33,1 -0.83,1.24 -1.17,-0.16 v -0.21" />
    <path
       style="opacity:1;fill:#ebebeb;fill-opacity:1;stroke:#152332;stroke-width:0.1693342;stroke-miterlimit:10;stroke-dasharray:none;stroke-opacity:1"
       inkscape:connector-curvature="0"
       id="path94"
       stroke-miterlimit="10"
       d="m 41.935021,55.740675 -3.61,-0.27 -0.11,0.74 -1.68,-0.17 2.29,-14.84 12.24,1.25 0.03,1.43 -0.85,12 -8.23,-0.58 -0.08,0.44" />
    <path
       style="opacity:1;fill:#ebebeb;fill-opacity:1;stroke:#152332;stroke-width:0.1693342;stroke-miterlimit:10;stroke-dasharray:none;stroke-opacity:1"
       inkscape:connector-curvature="0"
       id="path96"
       stroke-miterlimit="10"
       d="m 98.265021,25.680675 -0.09,0.91 h 0.66 l 7.739999,-1.57 1.33,1.33 2.32,1.01 0.07,-2.88 -0.07,-2.79 -1.25,-2.42 -0.24,-2.57 -1.42,0.12 -1.24,0.25 -0.83,0.41 -1.33,1.83 0.08,1.26 0.16,0.83 -0.66,0.24 -0.5,0.5 -0.91,0.26 -1.42,0.07 -1.739999,0.43 v 0.91 l 0.5,0.58 -0.5,0.5 -0.66,0.75 v 0.04" />
    <path
       style="opacity:1;fill:#ebebeb;fill-opacity:1;stroke:#152332;stroke-width:0.1693342;stroke-miterlimit:10;stroke-dasharray:none;stroke-opacity:1"
       inkscape:connector-curvature="0"
       id="path98"
       stroke-miterlimit="10"
       d="m 108.80502,39.740675 h -0.49 l -2.91,0.66 -3.57,0.83 -3.159999,0.17 -0.85,0.13 -0.89,0.56 -1.42,0.9 -0.66,0.57 h -0.58 l -0.33,0.76 -0.92,0.57 -0.67,0.34 -0.49,0.33 -0.34,1 -0.16,0.46 2.91,-0.37 0.74,-0.67 h 0.92 l 2.66,-0.25 0.5,0.42 2.819999,-0.09 2.66,1.83 0.25,0.13 0.25,-0.25 0.67,-0.17 v -0.58 l 0.33,-0.92 0.74,-0.99 1.33,-0.25 0.75,-0.59 -0.25,-0.41 -0.91,0.25 0.41,-0.5 0.09,-0.5 -0.92,-0.17 0.5,-0.16 0.92,0.25 0.41,-0.59 0.42,-0.66 0.57,0.25 -0.16,1.17 0.33,-0.5 0.09,-0.67 -0.92,-1.25 -0.58,0.09 -0.5,0.5 -0.75,0.16 -0.08,-0.42 0.58,0.09 0.75,-0.59 0.33,-0.33 -0.08,-0.67 -0.34,0.13" />
    <path
       style="opacity:1;fill:#ebebeb;fill-opacity:1;stroke:#152332;stroke-width:0.1693342;stroke-miterlimit:10;stroke-dasharray:none;stroke-opacity:1"
       inkscape:connector-curvature="0"
       id="path100"
       stroke-miterlimit="10"
       d="m 64.865021,18.030675 -0.25,-1.59 -0.17,-1.41 0.09,-0.92 -0.66,-1.24 v -1.92 l -2.87,-0.12 -3.14,-0.12 -3.19,-0.17 -3.08,-0.21 -0.61,8.03 13.93,0.64 -0.05,-0.97" />
    <path
       style="opacity:1;fill:#ebebeb;fill-opacity:1;stroke:#152332;stroke-width:0.1693342;stroke-miterlimit:10;stroke-dasharray:none;stroke-opacity:1"
       inkscape:connector-curvature="0"
       id="path102"
       stroke-miterlimit="10"
       d="m 94.515021,36.160675 0.92,-1.49 1,-0.5 0.58,-1.09 0.09,-2.33 -0.39,-4.03 -0.53,0.41 -1.67,1.09 -0.66,0.41 -0.74,0.42 -0.26,-0.33 h -0.5 l -0.74,0.08 -0.66,-0.08 -0.42,-0.13 -2.24,0.25 1.16,6.49 v 0.75 h 0.41 l 0.59,0.49 1.5,0.34 1.07,-0.25 0.77,0.15 0.46,0.42 0.26,-1.07" />
    <path
       style="opacity:1;fill:#ebebeb;fill-opacity:1;stroke:#152332;stroke-width:0.1693342;stroke-miterlimit:10;stroke-dasharray:none;stroke-opacity:1"
       inkscape:connector-curvature="0"
       id="path104"
       stroke-miterlimit="10"
       d="m 51.065021,42.430675 17.99,0.62 0.3,9 -0.59,-0.08 -0.66,-0.59 -0.91,-0.07 -0.75,0.24 -1.25,0.09 -0.83,-0.09 -0.75,0.09 -0.5,-0.33 h -0.57 l -0.83,0.07 -0.34,-0.33 -0.33,-0.24 -0.83,-0.09 -0.66,-0.25 -0.59,-0.33 -0.58,-0.25 -0.92,-0.17 0.09,-5.74 -6.48,-0.08 -0.01,-1.47" />
    <path
       style="opacity:1;fill:#ebebeb;fill-opacity:1;stroke:#152332;stroke-width:0.1693342;stroke-miterlimit:10;stroke-dasharray:none;stroke-opacity:1"
       inkscape:connector-curvature="0"
       id="path106"
       stroke-miterlimit="10"
       d="m 14.815021,11.080675 -0.41,0.41 v 0.92 l -0.83,1.25 -0.09,0.58 0.16,0.41 -0.41,0.43 -0.25,0.5 -0.08,0.9 -0.42,0.67 -0.41,0.26 0.24,0.41 -0.74,0.33 -0.16,0.75 -0.17,0.58 0.24,0.17 -0.33,0.5 v 0.75 l 0.31,0.59 8,2.05 5.25,1.24 2.27,-9.48 0.24,-1.12 -1.07,-0.07 -0.83,-0.17 -0.83,-0.16 -1.42,-0.08 -0.41,0.17 -0.75,-0.26 -0.5,0.09 h -0.74 l -0.76,-0.25 -0.41,0.08 -0.25,-0.16 -0.5,-0.17 -0.67,0.17 h -0.99 l -0.5,-0.83 0.25,-1.17 -0.16,-0.33 -1.33,-0.42 -0.54,0.46" />
    <path
       style="opacity:1;fill:#ebebeb;fill-opacity:1;stroke:#152332;stroke-width:0.1693342;stroke-miterlimit:10;stroke-dasharray:none;stroke-opacity:1"
       inkscape:connector-curvature="0"
       id="path108"
       stroke-miterlimit="10"
       d="m 107.73502,30.840675 -10.139999,2 -0.92,-5.99 1.59,-1.17 -0.09,0.91 h 0.66 l 7.739999,-1.57 1.27,1.26 0.3,0.4 -0.33,1.91 v 0.66 l 0.92,0.34 -0.34,0.92 -0.66,0.33" />
    <path
       style="opacity:1;fill:#ebebeb;fill-opacity:1;stroke:#152332;stroke-width:0.1693342;stroke-miterlimit:10;stroke-dasharray:none;stroke-opacity:1"
       inkscape:connector-curvature="0"
       id="path110"
       stroke-miterlimit="10"
       d="m 113.71502,24.760675 v -1.41 l 0.24,0.08 0.5,0.17 0.34,0.29 -0.08,1 -0.26,0.34 h -0.83 l 0.09,-0.47" />
    <path
       style="opacity:1;fill:#ebebeb;fill-opacity:1;stroke:#152332;stroke-width:0.1693342;stroke-miterlimit:10;stroke-dasharray:none;stroke-opacity:1"
       inkscape:connector-curvature="0"
       id="path112"
       stroke-miterlimit="10"
       d="m 104.57502,47.890675 -2.66,-1.83 -2.819999,0.09 -0.5,-0.42 -2.66,0.25 h -0.92 l -0.74,0.67 -0.33,0.07 -0.33,0.76 0.41,0.41 0.58,0.09 0.41,0.41 1.17,1.5 0.92,0.08 1.16,1.5 0.66,1 0.41,0.58 0.849999,-0.16 0.93,0.47 -0.3,-0.67 -0.31,-0.43 h 0.25 l 0.74,-0.17 v -0.5 l 0.42,-0.07 0.58,-0.26 0.33,-0.83 0.67,-0.24 v -0.5 l 0.42,-1.09 0.91,-0.6 -0.25,-0.11" />
    <path
       style="opacity:1;fill:#ebebeb;fill-opacity:1;stroke:#152332;stroke-width:0.1693342;stroke-miterlimit:10;stroke-dasharray:none;stroke-opacity:1"
       inkscape:connector-curvature="0"
       id="path114"
       stroke-miterlimit="10"
       d="m 65.195021,28.420675 -0.66,-0.41 -1.09,-0.75 -0.66,-0.17 -0.24,0.33 h -0.5 l -1,-0.74 -10.68,-0.53 0.62,-7.79 13.79,0.67 -0.16,0.49 -0.08,0.75 0.58,0.66 0.08,4 v 0.42 l -0.33,0.16 0.25,2.41 0.58,1.09 -0.5,-0.59" />
    <path
       style="opacity:1;fill:#ebebeb;fill-opacity:1;stroke:#152332;stroke-width:0.1693342;stroke-miterlimit:10;stroke-dasharray:none;stroke-opacity:1"
       inkscape:connector-curvature="0"
       id="path116"
       stroke-miterlimit="10"
       d="m 81.985021,47.890675 1.39,-0.08 7.95,-0.79 0.2,-0.46 0.34,-1 0.49,-0.33 0.67,-0.34 0.92,-0.57 0.33,-0.76 h 0.58 l 0.66,-0.57 2.29,-1.45 -1.7,0.28 -3.49,0.5 -5.74,0.67 -3.23,0.41 -0.92,0.09 -1.03,0.58 -1.21,-0.42 -0.92,1.17 0.09,1.07 -0.34,1.25 -0.55,0.52 -0.12,0.28 1.09,0.03 2.25,-0.08" />
    <path
       style="opacity:1;fill:#ebebeb;fill-opacity:1;stroke:#152332;stroke-width:0.1693342;stroke-miterlimit:10;stroke-dasharray:none;stroke-opacity:1"
       inkscape:connector-curvature="0"
       id="path118"
       stroke-miterlimit="10"
       d="m 70.425021,62.500675 -0.74,0.5 -0.5,-0.42 v -0.41 l -0.58,0.33 0.25,0.5 -0.17,0.41 -0.66,0.83 -1,0.59 -0.99,0.5 -0.84,-0.09 -0.58,-0.08 0.16,0.41 0.34,0.33 -0.08,0.34 -1,0.16 -0.5,0.26 0.08,0.33 -0.24,0.33 -0.5,0.08 v 0.42 l -0.26,0.58 -0.49,0.26 -0.08,0.41 h 0.66 l 0.17,0.5 -0.33,0.66 0.24,0.5 0.17,1 -0.08,0.66 0.16,0.38 -1.32,-0.38 -1.42,-0.24 -0.74,-0.33 -1.09,-1 -0.5,-1.25 -0.66,-1.25 -0.25,-0.92 -0.58,-0.57 -0.41,-0.43 -0.42,-0.5 v -0.74 l -0.5,-0.59 v -0.66 l -0.67,-0.58 -0.74,-0.59 -0.59,-0.57 -1.16,-0.17 -1.16,-0.33 -0.83,0.33 -0.17,1.16 -0.41,0.34 -0.5,0.24 -0.83,-0.5 -1.16,-0.91 -0.59,-0.66 -0.24,-1.17 -0.76,-1.08 -0.07,-0.67 -1.26,-0.91 -0.16,-0.5 -1,-1.09 -0.92,-0.52 0.06,-0.41 8.26,0.56 0.83,-11.98 6.48,0.08 -0.09,5.74 0.92,0.17 0.58,0.25 0.59,0.33 0.66,0.25 0.83,0.09 0.33,0.24 0.34,0.33 0.83,-0.07 h 0.57 l 0.5,0.33 0.75,-0.09 0.83,0.09 1.25,-0.09 0.75,-0.24 0.91,0.07 0.66,0.59 0.59,0.08 0.66,0.25 0.34,2.17 v 1.99 l 0.83,1 0.41,1 0.16,1 -0.24,0.91 -0.5,0.83 v 0.59 l 0.08,0.58 -0.67,0.13" />
    <path
       style="opacity:1;fill:#ebebeb;fill-opacity:1;stroke:#152332;stroke-width:0.1693342;stroke-miterlimit:10;stroke-dasharray:none;stroke-opacity:1"
       inkscape:connector-curvature="0"
       id="path120"
       stroke-miterlimit="10"
       d="m 112.08502,16.090675 -0.12,1.02 -0.41,0.92 v 1.33 l 0.24,1.33 -0.01,0.84 -1.59,0.15 -1.22,-2.41 -0.24,-2.57 3.35,-0.61" />
    <path
       style="opacity:1;fill:#ebebeb;fill-opacity:1;stroke:#152332;stroke-width:0.1693342;stroke-miterlimit:10;stroke-dasharray:none;stroke-opacity:1"
       inkscape:connector-curvature="0"
       id="path122"
       stroke-miterlimit="10"
       d="m 104.25502,33.710675 0.74,-0.59 0.5,0.93 -0.16,1.49 0.74,0.67 0.99,1 0.5,0.5 -0.42,0.24 h -0.91 l 0.83,0.5 1,0.25 0.67,0.25 0.41,0.66 -0.83,0.13 -2.91,0.66 -3.57,0.83 -3.159999,0.17 -2.57,0.42 -3.49,0.5 0.17,-0.33 0.66,-0.59 0.74,-0.24 0.09,-0.59 0.91,-0.83 0.33,0.08 1.16,0.25 0.92,-0.33 0.91,-0.67 0.59,-0.74 0.33,-1.26 0.41,-0.74 0.499999,-0.59 0.66,0.09 0.17,-0.59 0.33,-0.74 0.76,-1.09 0.49,-0.74 1.25,0.91 0.42,0.09 -0.16,0.04" />
    <path
       style="opacity:1;fill:#ebebeb;fill-opacity:1;stroke:#152332;stroke-width:0.1693342;stroke-miterlimit:10;stroke-dasharray:none;stroke-opacity:1"
       inkscape:connector-curvature="0"
       id="path124"
       stroke-miterlimit="10"
       d="m 18.555021,6.3306752 0.08,0.34 -0.5,0.59 -0.41,0.57 -0.09,0.42 0.09,0.34 v 0.33 l 0.58,-0.17 0.25,-0.42 0.41,-0.41 0.09,-0.66 0.08,-0.67 h -0.41 l -0.09,-0.42 0.16,-0.33 0.42,-0.5 v -0.91 l 0.58,-0.17 2.83,0.74 1.99,0.67 2.91,0.75 1.35,0.37 -1.23,5.7499998 -0.17,0.74 -0.26,0.9 -1.06,-0.07 -0.83,-0.17 -0.83,-0.16 -1.42,-0.08 -0.41,0.17 -0.75,-0.26 -0.5,0.09 h -0.74 l -0.76,-0.25 -0.41,0.08 -0.25,-0.16 -0.5,-0.17 -0.67,0.17 h -0.99 l -0.5,-0.83 0.25,-1.17 -0.16,-0.33 -1.04,-0.35 -0.5,-0.44 V 9.5006752 l 0.33,-0.84 -0.33,-0.33 0.16,-1.16 -0.41,-1.5 0.75,-1.24 1.33,1.33 0.66,-0.17 v 0.41 l 0.83,0.17 0.09,0.16" />
    <path
       style="opacity:1;fill:#ebebeb;fill-opacity:1;stroke:#152332;stroke-width:0.1693342;stroke-miterlimit:10;stroke-dasharray:none;stroke-opacity:1"
       inkscape:connector-curvature="0"
       id="path126"
       stroke-miterlimit="10"
       d="m 82.815021,18.320675 -0.34,0.92 -0.33,1.07 -0.42,1 v 0.42 l 0.5,-0.83 0.66,-0.75 0.34,-0.42 -0.34,0.75 -0.33,0.75 -0.33,1.24 0.09,0.84 -0.17,1.25 v 1.5 l 0.17,0.83 -0.09,0.37 -5.82,0.16 -0.16,-0.33 -0.69,-1.14 -0.28,-0.6 -0.03,-1.09 -0.41,-0.24 -0.33,-0.67 -0.5,-0.33 -1.42,-0.42 -0.33,-0.5 0.17,-1.33 -0.17,-0.41 -0.08,-0.67 v -0.59 l 0.41,-0.33 0.76,-0.67 -0.09,-0.24 -0.08,-1.33 0.33,-0.05 0.83,-0.07 0.67,-0.17 0.5,-0.09 0.16,-0.16 0.25,0.49 0.75,0.17 0.83,-0.17 -0.33,0.46 2.23,0.5 1.83,0.83 0.59,1.5 1,-1.45" />
    <path
       style="opacity:1;fill:#ebebeb;fill-opacity:1;stroke:#152332;stroke-width:0.1693342;stroke-miterlimit:10;stroke-dasharray:none;stroke-opacity:1"
       inkscape:connector-curvature="0"
       id="path128"
       stroke-miterlimit="10"
       d="m 49.915021,31.500675 0.88,-10.7 -13.18,-1.53 -1.75,10.65 8.41,1.01 5.64,0.57" />
    <path
       style="opacity:1;fill:#ebebeb;fill-opacity:1;stroke:#152332;stroke-width:0.1693342;stroke-miterlimit:10;stroke-dasharray:none;stroke-opacity:1"
       inkscape:connector-curvature="0"
       id="path130"
       stroke-miterlimit="10"
       d="m 38.845021,41.220675 -10.86,-1.86 2.52,-13.16 5.8,1.06 -0.46,2.65 4.19,0.51 -1.19,10.8" />
    <path
       style="opacity:1;fill:#ebebeb;fill-opacity:1;stroke:#152332;stroke-width:0.1693342;stroke-miterlimit:10;stroke-dasharray:none;stroke-opacity:1"
       inkscape:connector-curvature="0"
       id="path132"
       stroke-miterlimit="10"
       d="m 94.775021,38.660675 0.42,1.09 1.48,0.32 0.92,-0.33 0.91,-0.67 0.59,-0.74 0.33,-1.26 0.41,-0.74 0.499999,-0.59 0.66,0.09 0.17,-0.59 0.33,-0.74 0.76,-1.09 0.49,-0.74 1.25,0.91 0.42,0.09 -0.67,-0.59 -1.08,-0.67 -2.66,1.26 v -1.3 l -2.389999,0.44 -0.46,-2.4 -0.14,2.67 -0.58,1.09 -1,0.5 -0.92,1.49 -0.24,1 0.5,1.5" />
  </g>
</svg>
